<svg xmlns="http://www.w3.org/2000/svg" xmlns:xlink="http://www.w3.org/1999/xlink" width="2000" zoomAndPan="magnify" viewBox="0 0 1500 1499.999933" height="2000" preserveAspectRatio="xMidYMid meet" version="1.0"><defs><clipPath id="a834a3823c"><path d="M 0.875 368.003906 L 256.714844 368.003906 L 256.714844 623.84375 L 0.875 623.84375 Z M 0.875 368.003906 " clip-rule="nonzero"/></clipPath><clipPath id="b037767d3d"><path d="M 21.875 368.003906 L 235.714844 368.003906 C 247.3125 368.003906 256.714844 377.40625 256.714844 389.003906 L 256.714844 602.84375 C 256.714844 614.441406 247.3125 623.84375 235.714844 623.84375 L 21.875 623.84375 C 10.273438 623.84375 0.875 614.441406 0.875 602.84375 L 0.875 389.003906 C 0.875 377.40625 10.273438 368.003906 21.875 368.003906 Z M 21.875 368.003906 " clip-rule="nonzero"/></clipPath><clipPath id="b485f94cee"><path d="M 0.875 0.00390625 L 256.714844 0.00390625 L 256.714844 255.84375 L 0.875 255.84375 Z M 0.875 0.00390625 " clip-rule="nonzero"/></clipPath><clipPath id="4952019384"><path d="M 21.875 0.00390625 L 235.714844 0.00390625 C 247.3125 0.00390625 256.714844 9.40625 256.714844 21.003906 L 256.714844 234.84375 C 256.714844 246.441406 247.3125 255.84375 235.714844 255.84375 L 21.875 255.84375 C 10.273438 255.84375 0.875 246.441406 0.875 234.84375 L 0.875 21.003906 C 0.875 9.40625 10.273438 0.00390625 21.875 0.00390625 Z M 21.875 0.00390625 " clip-rule="nonzero"/></clipPath><clipPath id="829603cae9"><rect x="0" width="257" y="0" height="256"/></clipPath><clipPath id="56e2c4c924"><path d="M 381.285156 576.152344 L 637.125 576.152344 L 637.125 831.992188 L 381.285156 831.992188 Z M 381.285156 576.152344 " clip-rule="nonzero"/></clipPath><clipPath id="e5fc6c3db8"><path d="M 616.125 831.992188 L 402.285156 831.992188 C 390.6875 831.992188 381.285156 822.589844 381.285156 810.992188 L 381.285156 597.152344 C 381.285156 585.554688 390.6875 576.152344 402.285156 576.152344 L 616.125 576.152344 C 627.722656 576.152344 637.125 585.554688 637.125 597.152344 L 637.125 810.992188 C 637.125 822.589844 627.722656 831.992188 616.125 831.992188 Z M 616.125 831.992188 " clip-rule="nonzero"/></clipPath><clipPath id="4a1317cdc8"><path d="M 0.285156 0.152344 L 256.125 0.152344 L 256.125 255.992188 L 0.285156 255.992188 Z M 0.285156 0.152344 " clip-rule="nonzero"/></clipPath><clipPath id="4b9843cbda"><path d="M 235.125 255.992188 L 21.285156 255.992188 C 9.6875 255.992188 0.285156 246.589844 0.285156 234.992188 L 0.285156 21.152344 C 0.285156 9.554688 9.6875 0.152344 21.285156 0.152344 L 235.125 0.152344 C 246.722656 0.152344 256.125 9.554688 256.125 21.152344 L 256.125 234.992188 C 256.125 246.589844 246.722656 255.992188 235.125 255.992188 Z M 235.125 255.992188 " clip-rule="nonzero"/></clipPath><clipPath id="a67daba8f5"><rect x="0" width="257" y="0" height="256"/></clipPath><clipPath id="529deeb7eb"><path d="M 247.511719 0 L 633.917969 0 L 633.917969 386.40625 L 247.511719 386.40625 Z M 247.511719 0 " clip-rule="nonzero"/></clipPath><clipPath id="2024fa3587"><path d="M 268.511719 0 L 612.917969 0 C 624.515625 0 633.917969 9.402344 633.917969 21 L 633.917969 365.40625 C 633.917969 377.003906 624.515625 386.40625 612.917969 386.40625 L 268.511719 386.40625 C 256.914062 386.40625 247.511719 377.003906 247.511719 365.40625 L 247.511719 21 C 247.511719 9.402344 256.914062 0 268.511719 0 Z M 268.511719 0 " clip-rule="nonzero"/></clipPath><clipPath id="9593b97292"><path d="M 0.511719 0 L 386.917969 0 L 386.917969 386.40625 L 0.511719 386.40625 Z M 0.511719 0 " clip-rule="nonzero"/></clipPath><clipPath id="7d0fa1cf1d"><path d="M 21.511719 0 L 365.917969 0 C 377.515625 0 386.917969 9.402344 386.917969 21 L 386.917969 365.40625 C 386.917969 377.003906 377.515625 386.40625 365.917969 386.40625 L 21.511719 386.40625 C 9.914062 386.40625 0.511719 377.003906 0.511719 365.40625 L 0.511719 21 C 0.511719 9.402344 9.914062 0 21.511719 0 Z M 21.511719 0 " clip-rule="nonzero"/></clipPath><clipPath id="4f93e658bd"><rect x="0" width="387" y="0" height="387"/></clipPath><clipPath id="ae1c6cfc6d"><path d="M 4.070312 813.582031 L 390.476562 813.582031 L 390.476562 1199.988281 L 4.070312 1199.988281 Z M 4.070312 813.582031 " clip-rule="nonzero"/></clipPath><clipPath id="2a2197b16c"><path d="M 369.476562 1199.988281 L 25.070312 1199.988281 C 13.472656 1199.988281 4.070312 1190.585938 4.070312 1178.988281 L 4.070312 834.582031 C 4.070312 822.980469 13.472656 813.582031 25.070312 813.582031 L 369.476562 813.582031 C 381.074219 813.582031 390.476562 822.980469 390.476562 834.582031 L 390.476562 1178.988281 C 390.476562 1190.585938 381.074219 1199.988281 369.476562 1199.988281 Z M 369.476562 1199.988281 " clip-rule="nonzero"/></clipPath><clipPath id="eefc58f04a"><path d="M 0.0703125 0.582031 L 386.476562 0.582031 L 386.476562 386.988281 L 0.0703125 386.988281 Z M 0.0703125 0.582031 " clip-rule="nonzero"/></clipPath><clipPath id="f45dba9a83"><path d="M 365.476562 386.988281 L 21.070312 386.988281 C 9.472656 386.988281 0.0703125 377.585938 0.0703125 365.988281 L 0.0703125 21.582031 C 0.0703125 9.980469 9.472656 0.582031 21.070312 0.582031 L 365.476562 0.582031 C 377.074219 0.582031 386.476562 9.980469 386.476562 21.582031 L 386.476562 365.988281 C 386.476562 377.585938 377.074219 386.988281 365.476562 386.988281 Z M 365.476562 386.988281 " clip-rule="nonzero"/></clipPath><clipPath id="98e081463f"><rect x="0" width="387" y="0" height="387"/></clipPath><clipPath id="ed8bd182bf"><path d="M 193.269531 314.472656 L 318.105469 314.472656 L 318.105469 439.308594 L 193.269531 439.308594 Z M 193.269531 314.472656 " clip-rule="nonzero"/></clipPath><clipPath id="3e5b89d3a0"><path d="M 193.269531 439.308594 C 193.269531 406.433594 206.585938 374.285156 229.832031 351.035156 C 253.082031 327.789062 285.230469 314.472656 318.105469 314.472656 L 318.105469 378.160156 C 302 378.160156 286.253906 384.683594 274.867188 396.070312 C 263.480469 407.457031 256.957031 423.207031 256.957031 439.308594 Z M 193.269531 439.308594 " clip-rule="nonzero"/></clipPath><clipPath id="137edc3021"><path d="M 0.269531 0.472656 L 125.105469 0.472656 L 125.105469 125.308594 L 0.269531 125.308594 Z M 0.269531 0.472656 " clip-rule="nonzero"/></clipPath><clipPath id="0ccc4de387"><path d="M 0.269531 125.308594 C 0.269531 92.433594 13.585938 60.285156 36.832031 37.035156 C 60.082031 13.789062 92.230469 0.472656 125.105469 0.472656 L 125.105469 64.160156 C 109 64.160156 93.253906 70.683594 81.867188 82.070312 C 70.480469 93.457031 63.957031 109.207031 63.957031 125.308594 Z M 0.269531 125.308594 " clip-rule="nonzero"/></clipPath><clipPath id="2220f604da"><rect x="0" width="126" y="0" height="126"/></clipPath><clipPath id="a09251ab9c"><path d="M 318.105469 768.820312 L 442.945312 768.820312 L 442.945312 893.65625 L 318.105469 893.65625 Z M 318.105469 768.820312 " clip-rule="nonzero"/></clipPath><clipPath id="3abe0e2375"><path d="M 318.105469 893.65625 C 318.105469 860.777344 331.421875 828.632812 354.671875 805.382812 C 377.917969 782.136719 410.066406 768.820312 442.945312 768.820312 L 442.945312 832.507812 C 426.839844 832.507812 411.089844 839.03125 399.703125 850.417969 C 388.316406 861.804688 381.792969 877.550781 381.792969 893.65625 Z M 318.105469 893.65625 " clip-rule="nonzero"/></clipPath><clipPath id="2b13a2c6e2"><path d="M 0.105469 0.820312 L 124.945312 0.820312 L 124.945312 125.65625 L 0.105469 125.65625 Z M 0.105469 0.820312 " clip-rule="nonzero"/></clipPath><clipPath id="5d71d541c5"><path d="M 0.105469 125.65625 C 0.105469 92.777344 13.421875 60.632812 36.671875 37.382812 C 59.917969 14.136719 92.066406 0.820312 124.945312 0.820312 L 124.945312 64.507812 C 108.839844 64.507812 93.089844 71.03125 81.703125 82.417969 C 70.316406 93.804688 63.792969 109.550781 63.792969 125.65625 Z M 0.105469 125.65625 " clip-rule="nonzero"/></clipPath><clipPath id="e2a3eae25b"><rect x="0" width="125" y="0" height="126"/></clipPath><clipPath id="e51d364f68"><rect x="0" width="638" y="0" height="1200"/></clipPath></defs><rect x="-150" width="1800" fill="#ffffff" y="-149.999993" height="1799.99992" fill-opacity="1"/><rect x="-150" width="1800" fill="#004aad" y="-149.999993" height="1799.99992" fill-opacity="0"/><g transform="matrix(1, 0, 0, 1, 431, 150)"><g clip-path="url(#e51d364f68)"><g clip-path="url(#a834a3823c)"><g clip-path="url(#b037767d3d)"><g transform="matrix(1, 0, 0, 1, 0, 368)"><g clip-path="url(#829603cae9)"><g clip-path="url(#b485f94cee)"><g clip-path="url(#4952019384)"><path fill="#fafafa" d="M 0.875 0.00390625 L 256.714844 0.00390625 L 256.714844 255.84375 L 0.875 255.84375 Z M 0.875 0.00390625 " fill-opacity="1" fill-rule="nonzero"/></g></g></g></g></g></g><g clip-path="url(#56e2c4c924)"><g clip-path="url(#e5fc6c3db8)"><g transform="matrix(1, 0, 0, 1, 381, 576)"><g clip-path="url(#a67daba8f5)"><g clip-path="url(#4a1317cdc8)"><g clip-path="url(#4b9843cbda)"><path fill="#fafafa" d="M 256.125 255.992188 L 0.285156 255.992188 L 0.285156 0.152344 L 256.125 0.152344 Z M 256.125 255.992188 " fill-opacity="1" fill-rule="nonzero"/></g></g></g></g></g></g><g clip-path="url(#529deeb7eb)"><g clip-path="url(#2024fa3587)"><g transform="matrix(1, 0, 0, 1, 247, 0.000000000000113687)"><g clip-path="url(#4f93e658bd)"><g clip-path="url(#9593b97292)"><g clip-path="url(#7d0fa1cf1d)"><path fill="#fafafa" d="M 0.511719 0 L 386.917969 0 L 386.917969 386.40625 L 0.511719 386.40625 Z M 0.511719 0 " fill-opacity="1" fill-rule="nonzero"/></g></g></g></g></g></g><g clip-path="url(#ae1c6cfc6d)"><g clip-path="url(#2a2197b16c)"><g transform="matrix(1, 0, 0, 1, 4, 813)"><g clip-path="url(#98e081463f)"><g clip-path="url(#eefc58f04a)"><g clip-path="url(#f45dba9a83)"><path fill="#fafafa" d="M 386.476562 386.988281 L 0.0703125 386.988281 L 0.0703125 0.582031 L 386.476562 0.582031 Z M 386.476562 386.988281 " fill-opacity="1" fill-rule="nonzero"/></g></g></g></g></g></g><g clip-path="url(#ed8bd182bf)"><g clip-path="url(#3e5b89d3a0)"><g transform="matrix(1, 0, 0, 1, 193, 314)"><g clip-path="url(#2220f604da)"><g clip-path="url(#137edc3021)"><g clip-path="url(#0ccc4de387)"><path fill="#fafafa" d="M 0.269531 0.472656 L 125.105469 0.472656 L 125.105469 125.308594 L 0.269531 125.308594 Z M 0.269531 0.472656 " fill-opacity="1" fill-rule="nonzero"/></g></g></g></g></g></g><g clip-path="url(#a09251ab9c)"><g clip-path="url(#3abe0e2375)"><g transform="matrix(1, 0, 0, 1, 318, 768)"><g clip-path="url(#e2a3eae25b)"><g clip-path="url(#2b13a2c6e2)"><g clip-path="url(#5d71d541c5)"><path fill="#fafafa" d="M 0.105469 0.820312 L 124.945312 0.820312 L 124.945312 125.65625 L 0.105469 125.65625 Z M 0.105469 0.820312 " fill-opacity="1" fill-rule="nonzero"/></g></g></g></g></g></g></g></g></svg>