<svg xmlns="http://www.w3.org/2000/svg" xmlns:xlink="http://www.w3.org/1999/xlink" width="2000" zoomAndPan="magnify" viewBox="0 0 1500 1499.999933" height="2000" preserveAspectRatio="xMidYMid meet" version="1.0"><defs><clipPath id="cfb1707d26"><path d="M 0.875 368.003906 L 256.714844 368.003906 L 256.714844 623.84375 L 0.875 623.84375 Z M 0.875 368.003906 " clip-rule="nonzero"/></clipPath><clipPath id="5515c79443"><path d="M 21.875 368.003906 L 235.714844 368.003906 C 247.3125 368.003906 256.714844 377.40625 256.714844 389.003906 L 256.714844 602.84375 C 256.714844 614.441406 247.3125 623.84375 235.714844 623.84375 L 21.875 623.84375 C 10.273438 623.84375 0.875 614.441406 0.875 602.84375 L 0.875 389.003906 C 0.875 377.40625 10.273438 368.003906 21.875 368.003906 Z M 21.875 368.003906 " clip-rule="nonzero"/></clipPath><clipPath id="01717213da"><path d="M 0.875 0.00390625 L 256.714844 0.00390625 L 256.714844 255.84375 L 0.875 255.84375 Z M 0.875 0.00390625 " clip-rule="nonzero"/></clipPath><clipPath id="07f116091f"><path d="M 21.875 0.00390625 L 235.714844 0.00390625 C 247.3125 0.00390625 256.714844 9.40625 256.714844 21.003906 L 256.714844 234.84375 C 256.714844 246.441406 247.3125 255.84375 235.714844 255.84375 L 21.875 255.84375 C 10.273438 255.84375 0.875 246.441406 0.875 234.84375 L 0.875 21.003906 C 0.875 9.40625 10.273438 0.00390625 21.875 0.00390625 Z M 21.875 0.00390625 " clip-rule="nonzero"/></clipPath><clipPath id="9499b759c9"><rect x="0" width="257" y="0" height="256"/></clipPath><clipPath id="1bf3b1bc24"><path d="M 381.285156 576.152344 L 637.125 576.152344 L 637.125 831.992188 L 381.285156 831.992188 Z M 381.285156 576.152344 " clip-rule="nonzero"/></clipPath><clipPath id="fe7937ab04"><path d="M 616.125 831.992188 L 402.285156 831.992188 C 390.6875 831.992188 381.285156 822.589844 381.285156 810.992188 L 381.285156 597.152344 C 381.285156 585.554688 390.6875 576.152344 402.285156 576.152344 L 616.125 576.152344 C 627.722656 576.152344 637.125 585.554688 637.125 597.152344 L 637.125 810.992188 C 637.125 822.589844 627.722656 831.992188 616.125 831.992188 Z M 616.125 831.992188 " clip-rule="nonzero"/></clipPath><clipPath id="1f298170c3"><path d="M 0.285156 0.152344 L 256.125 0.152344 L 256.125 255.992188 L 0.285156 255.992188 Z M 0.285156 0.152344 " clip-rule="nonzero"/></clipPath><clipPath id="9293ee0239"><path d="M 235.125 255.992188 L 21.285156 255.992188 C 9.6875 255.992188 0.285156 246.589844 0.285156 234.992188 L 0.285156 21.152344 C 0.285156 9.554688 9.6875 0.152344 21.285156 0.152344 L 235.125 0.152344 C 246.722656 0.152344 256.125 9.554688 256.125 21.152344 L 256.125 234.992188 C 256.125 246.589844 246.722656 255.992188 235.125 255.992188 Z M 235.125 255.992188 " clip-rule="nonzero"/></clipPath><clipPath id="7af1c165cb"><rect x="0" width="257" y="0" height="256"/></clipPath><clipPath id="7d75542698"><path d="M 247.511719 0 L 633.917969 0 L 633.917969 386.40625 L 247.511719 386.40625 Z M 247.511719 0 " clip-rule="nonzero"/></clipPath><clipPath id="2b30f4d84d"><path d="M 268.511719 0 L 612.917969 0 C 624.515625 0 633.917969 9.402344 633.917969 21 L 633.917969 365.40625 C 633.917969 377.003906 624.515625 386.40625 612.917969 386.40625 L 268.511719 386.40625 C 256.914062 386.40625 247.511719 377.003906 247.511719 365.40625 L 247.511719 21 C 247.511719 9.402344 256.914062 0 268.511719 0 Z M 268.511719 0 " clip-rule="nonzero"/></clipPath><clipPath id="eceb658304"><path d="M 0.511719 0 L 386.917969 0 L 386.917969 386.40625 L 0.511719 386.40625 Z M 0.511719 0 " clip-rule="nonzero"/></clipPath><clipPath id="a5debce240"><path d="M 21.511719 0 L 365.917969 0 C 377.515625 0 386.917969 9.402344 386.917969 21 L 386.917969 365.40625 C 386.917969 377.003906 377.515625 386.40625 365.917969 386.40625 L 21.511719 386.40625 C 9.914062 386.40625 0.511719 377.003906 0.511719 365.40625 L 0.511719 21 C 0.511719 9.402344 9.914062 0 21.511719 0 Z M 21.511719 0 " clip-rule="nonzero"/></clipPath><clipPath id="87f59fa94d"><rect x="0" width="387" y="0" height="387"/></clipPath><clipPath id="8045ae83b4"><path d="M 4.070312 813.582031 L 390.476562 813.582031 L 390.476562 1199.988281 L 4.070312 1199.988281 Z M 4.070312 813.582031 " clip-rule="nonzero"/></clipPath><clipPath id="50e57b1d62"><path d="M 369.476562 1199.988281 L 25.070312 1199.988281 C 13.472656 1199.988281 4.070312 1190.585938 4.070312 1178.988281 L 4.070312 834.582031 C 4.070312 822.980469 13.472656 813.582031 25.070312 813.582031 L 369.476562 813.582031 C 381.074219 813.582031 390.476562 822.980469 390.476562 834.582031 L 390.476562 1178.988281 C 390.476562 1190.585938 381.074219 1199.988281 369.476562 1199.988281 Z M 369.476562 1199.988281 " clip-rule="nonzero"/></clipPath><clipPath id="77534dc17e"><path d="M 0.0703125 0.582031 L 386.476562 0.582031 L 386.476562 386.988281 L 0.0703125 386.988281 Z M 0.0703125 0.582031 " clip-rule="nonzero"/></clipPath><clipPath id="e118cfa758"><path d="M 365.476562 386.988281 L 21.070312 386.988281 C 9.472656 386.988281 0.0703125 377.585938 0.0703125 365.988281 L 0.0703125 21.582031 C 0.0703125 9.980469 9.472656 0.582031 21.070312 0.582031 L 365.476562 0.582031 C 377.074219 0.582031 386.476562 9.980469 386.476562 21.582031 L 386.476562 365.988281 C 386.476562 377.585938 377.074219 386.988281 365.476562 386.988281 Z M 365.476562 386.988281 " clip-rule="nonzero"/></clipPath><clipPath id="c0f3f19953"><rect x="0" width="387" y="0" height="387"/></clipPath><clipPath id="04aa8c6291"><path d="M 193.269531 314.472656 L 318.105469 314.472656 L 318.105469 439.308594 L 193.269531 439.308594 Z M 193.269531 314.472656 " clip-rule="nonzero"/></clipPath><clipPath id="87514fd5e1"><path d="M 193.269531 439.308594 C 193.269531 406.433594 206.585938 374.285156 229.832031 351.035156 C 253.082031 327.789062 285.230469 314.472656 318.105469 314.472656 L 318.105469 378.160156 C 302 378.160156 286.253906 384.683594 274.867188 396.070312 C 263.480469 407.457031 256.957031 423.207031 256.957031 439.308594 Z M 193.269531 439.308594 " clip-rule="nonzero"/></clipPath><clipPath id="beabbcbcc5"><path d="M 0.269531 0.472656 L 125.105469 0.472656 L 125.105469 125.308594 L 0.269531 125.308594 Z M 0.269531 0.472656 " clip-rule="nonzero"/></clipPath><clipPath id="481c8d7936"><path d="M 0.269531 125.308594 C 0.269531 92.433594 13.585938 60.285156 36.832031 37.035156 C 60.082031 13.789062 92.230469 0.472656 125.105469 0.472656 L 125.105469 64.160156 C 109 64.160156 93.253906 70.683594 81.867188 82.070312 C 70.480469 93.457031 63.957031 109.207031 63.957031 125.308594 Z M 0.269531 125.308594 " clip-rule="nonzero"/></clipPath><clipPath id="63755ccc09"><rect x="0" width="126" y="0" height="126"/></clipPath><clipPath id="499dc45ea9"><path d="M 318.105469 768.820312 L 442.945312 768.820312 L 442.945312 893.65625 L 318.105469 893.65625 Z M 318.105469 768.820312 " clip-rule="nonzero"/></clipPath><clipPath id="4c91cce089"><path d="M 318.105469 893.65625 C 318.105469 860.777344 331.421875 828.632812 354.671875 805.382812 C 377.917969 782.136719 410.066406 768.820312 442.945312 768.820312 L 442.945312 832.507812 C 426.839844 832.507812 411.089844 839.03125 399.703125 850.417969 C 388.316406 861.804688 381.792969 877.550781 381.792969 893.65625 Z M 318.105469 893.65625 " clip-rule="nonzero"/></clipPath><clipPath id="98dfb02c1b"><path d="M 0.105469 0.820312 L 124.945312 0.820312 L 124.945312 125.65625 L 0.105469 125.65625 Z M 0.105469 0.820312 " clip-rule="nonzero"/></clipPath><clipPath id="0e367afdf3"><path d="M 0.105469 125.65625 C 0.105469 92.777344 13.421875 60.632812 36.671875 37.382812 C 59.917969 14.136719 92.066406 0.820312 124.945312 0.820312 L 124.945312 64.507812 C 108.839844 64.507812 93.089844 71.03125 81.703125 82.417969 C 70.316406 93.804688 63.792969 109.550781 63.792969 125.65625 Z M 0.105469 125.65625 " clip-rule="nonzero"/></clipPath><clipPath id="fe1ca4f282"><rect x="0" width="125" y="0" height="126"/></clipPath><clipPath id="7c52533ec4"><rect x="0" width="638" y="0" height="1200"/></clipPath></defs><rect x="-150" width="1800" fill="#ffffff" y="-149.999993" height="1799.99992" fill-opacity="0"/><rect x="-150" width="1800" fill="#fafafa" y="-149.999993" height="1799.99992" fill-opacity="0"/><g transform="matrix(1, 0, 0, 1, 431, 150)"><g clip-path="url(#7c52533ec4)"><g clip-path="url(#cfb1707d26)"><g clip-path="url(#5515c79443)"><g transform="matrix(1, 0, 0, 1, 0, 368)"><g clip-path="url(#9499b759c9)"><g clip-path="url(#01717213da)"><g clip-path="url(#07f116091f)"><path fill="#004aad" d="M 0.875 0.00390625 L 256.714844 0.00390625 L 256.714844 255.84375 L 0.875 255.84375 Z M 0.875 0.00390625 " fill-opacity="1" fill-rule="nonzero"/></g></g></g></g></g></g><g clip-path="url(#1bf3b1bc24)"><g clip-path="url(#fe7937ab04)"><g transform="matrix(1, 0, 0, 1, 381, 576)"><g clip-path="url(#7af1c165cb)"><g clip-path="url(#1f298170c3)"><g clip-path="url(#9293ee0239)"><path fill="#004aad" d="M 256.125 255.992188 L 0.285156 255.992188 L 0.285156 0.152344 L 256.125 0.152344 Z M 256.125 255.992188 " fill-opacity="1" fill-rule="nonzero"/></g></g></g></g></g></g><g clip-path="url(#7d75542698)"><g clip-path="url(#2b30f4d84d)"><g transform="matrix(1, 0, 0, 1, 247, 0.000000000000113687)"><g clip-path="url(#87f59fa94d)"><g clip-path="url(#eceb658304)"><g clip-path="url(#a5debce240)"><path fill="#004aad" d="M 0.511719 0 L 386.917969 0 L 386.917969 386.40625 L 0.511719 386.40625 Z M 0.511719 0 " fill-opacity="1" fill-rule="nonzero"/></g></g></g></g></g></g><g clip-path="url(#8045ae83b4)"><g clip-path="url(#50e57b1d62)"><g transform="matrix(1, 0, 0, 1, 4, 813)"><g clip-path="url(#c0f3f19953)"><g clip-path="url(#77534dc17e)"><g clip-path="url(#e118cfa758)"><path fill="#004aad" d="M 386.476562 386.988281 L 0.0703125 386.988281 L 0.0703125 0.582031 L 386.476562 0.582031 Z M 386.476562 386.988281 " fill-opacity="1" fill-rule="nonzero"/></g></g></g></g></g></g><g clip-path="url(#04aa8c6291)"><g clip-path="url(#87514fd5e1)"><g transform="matrix(1, 0, 0, 1, 193, 314)"><g clip-path="url(#63755ccc09)"><g clip-path="url(#beabbcbcc5)"><g clip-path="url(#481c8d7936)"><path fill="#004aad" d="M 0.269531 0.472656 L 125.105469 0.472656 L 125.105469 125.308594 L 0.269531 125.308594 Z M 0.269531 0.472656 " fill-opacity="1" fill-rule="nonzero"/></g></g></g></g></g></g><g clip-path="url(#499dc45ea9)"><g clip-path="url(#4c91cce089)"><g transform="matrix(1, 0, 0, 1, 318, 768)"><g clip-path="url(#fe1ca4f282)"><g clip-path="url(#98dfb02c1b)"><g clip-path="url(#0e367afdf3)"><path fill="#004aad" d="M 0.105469 0.820312 L 124.945312 0.820312 L 124.945312 125.65625 L 0.105469 125.65625 Z M 0.105469 0.820312 " fill-opacity="1" fill-rule="nonzero"/></g></g></g></g></g></g></g></g></svg>